<svg width="22" height="22" viewBox="0 0 22 22" fill="none" xmlns="http://www.w3.org/2000/svg">
<g id="Frame" clip-path="url(#clip0_1045_146)">
<path id="Vector" d="M21.9969 6.83336C21.9253 8.13511 21.4089 9.18998 20.988 9.69817C20.6813 10.0695 19.8603 10.9401 19.4188 11.4049L14.4435 6.29974L11.9171 8.60823L11.9109 8.61373C10.8161 9.65415 9.3631 9.72154 9.34933 9.72223L9.33215 9.72291C9.27439 9.72775 9.21455 9.7298 9.15474 9.7298C7.96509 9.7298 6.79744 8.85645 6.2755 8.40743C7.39087 7.26935 11.4811 3.11518 13.0579 1.76734C13.6424 1.26812 14.8355 0.683594 16.2741 0.683594C17.7746 0.683594 19.1265 1.30523 20.2928 2.53135C21.8098 4.12534 22.0567 5.7503 21.9969 6.83336ZM5.13946 8.42187L5.40767 8.6983C5.48124 8.77256 7.21346 10.5254 9.15543 10.5254C9.23244 10.5254 9.31015 10.5227 9.38649 10.5172C9.54463 10.5103 11.1826 10.4092 12.4693 9.18861L14.4112 7.41511L17.1639 10.2414L17.1598 10.2442L19.6904 12.8807L19.698 12.8882C20.0542 13.2403 20.0246 13.9293 19.6375 14.3371C19.1953 14.7676 18.54 14.824 18.1741 14.463L14.8582 11.3754L14.5364 11.7102L14.2902 11.9523L17.4995 15.1169C17.8667 15.4793 17.8069 16.1257 17.3675 16.5576C17.1474 16.7728 16.8689 16.9014 16.5822 16.9186C16.316 16.9351 16.0747 16.8512 15.9041 16.682L12.624 13.4432L12.0512 14.0057L15.2818 17.2989L15.2859 17.303C15.4565 17.4722 15.5411 17.7094 15.5239 17.9721C15.5046 18.2541 15.3733 18.5278 15.1539 18.7437C14.9338 18.9589 14.6547 19.0875 14.3686 19.1047C14.1018 19.1212 13.8611 19.0373 13.6899 18.8681L13.3399 18.5229C13.6551 18.1985 13.8286 17.7621 13.8223 17.3098C13.8159 16.8575 13.6303 16.4262 13.3062 16.1106C12.9769 15.7882 12.534 15.6084 12.0732 15.61C11.959 15.61 11.8463 15.621 11.7369 15.6416C11.7669 15.3824 11.7369 15.1198 11.6494 14.8739C11.5619 14.6281 11.4192 14.4057 11.2322 14.2237C10.9027 13.9011 10.4595 13.7213 9.9985 13.7231C9.88709 13.7231 9.77775 13.7341 9.67049 13.754C9.6994 13.4959 9.66875 13.2346 9.58089 12.9903C9.49302 12.7459 9.35029 12.5249 9.16366 12.3443C8.83425 12.0217 8.39105 11.8419 7.93001 11.8437C7.79767 11.8437 7.66574 11.8584 7.53667 11.8877C7.57374 11.6226 7.54765 11.3525 7.46053 11.0994C7.37342 10.8463 7.22774 10.6173 7.03537 10.4312C6.70611 10.1088 6.26319 9.92898 5.80238 9.9306C5.57198 9.92963 5.34365 9.97407 5.13043 10.0614C4.91722 10.1487 4.7233 10.2772 4.55976 10.4395L2.99327 11.9936L3.10949 11.8615C2.66869 11.4847 1.44535 10.3707 1.07746 9.74904L1.01899 9.65347C-0.556447 7.09603 -0.301311 4.64454 1.75823 2.56367C3.2312 1.07419 4.91805 0.851374 6.07331 0.927709C7.60404 1.02812 8.83634 1.66763 9.42636 2.18477C9.62302 2.35737 9.95929 2.673 10.4269 3.1241C8.25046 5.23524 5.56308 7.98796 5.40835 8.14679L5.13946 8.42187ZM5.13261 11.0006C5.31139 10.8239 5.54863 10.7262 5.80238 10.7262C6.05268 10.7262 6.28856 10.8225 6.46597 10.9958C6.64477 11.1711 6.74379 11.4036 6.74447 11.6511C6.74516 11.8987 6.64821 12.1325 6.47149 12.3085L4.00344 14.7553C3.82534 14.9327 3.58808 15.0296 3.33502 15.0296C3.08403 15.0296 2.84815 14.9333 2.67006 14.7601C2.5823 14.675 2.51249 14.5731 2.46477 14.4605C2.41706 14.348 2.39239 14.227 2.39224 14.1047C2.39087 13.8572 2.48852 13.6234 2.66522 13.4473L5.13325 11.0006L5.13261 11.0006ZM7.26091 12.9137C7.34886 12.8261 7.45326 12.7568 7.56808 12.7097C7.68291 12.6626 7.80591 12.6387 7.93001 12.6393C8.18031 12.6393 8.41687 12.7356 8.59428 12.9089C8.77308 13.0835 8.8721 13.3166 8.87279 13.5642C8.87347 13.8125 8.77653 14.0456 8.5991 14.2216L6.13175 16.6683C6.04378 16.7558 5.93939 16.8251 5.82457 16.8722C5.70976 16.9193 5.58678 16.9433 5.46269 16.9427C5.21237 16.9427 4.97649 16.8464 4.7984 16.6731C4.71039 16.5881 4.64032 16.4863 4.59231 16.3738C4.54431 16.2612 4.51934 16.1402 4.51889 16.0178C4.51844 15.8954 4.54251 15.7742 4.58969 15.6613C4.63686 15.5484 4.70619 15.4461 4.79356 15.3604L7.26091 12.9137ZM9.32941 14.7931C9.50819 14.6163 9.74544 14.5194 9.9985 14.5194C10.2488 14.5194 10.4847 14.615 10.6628 14.7889C11.0314 15.1493 11.0341 15.7379 10.6676 16.1017L8.20026 18.5484C8.02146 18.7251 7.78423 18.8228 7.53117 18.8228C7.28085 18.8228 7.04498 18.7265 6.86688 18.5532C6.77877 18.4682 6.70861 18.3663 6.66054 18.2537C6.61247 18.1411 6.58747 18.02 6.58702 17.8975C6.58657 17.7751 6.61068 17.6537 6.65792 17.5408C6.70516 17.4278 6.77458 17.3254 6.86207 17.2398L9.32941 14.7931ZM11.4034 16.68C11.5822 16.5033 11.8194 16.405 12.0732 16.405C12.3235 16.405 12.5594 16.5012 12.7368 16.6752C13.1061 17.0355 13.1081 17.6242 12.7416 17.9879L10.2742 20.4346C10.0961 20.6114 9.85822 20.709 9.60515 20.709C9.35483 20.709 9.11898 20.6127 8.94086 20.4395C8.85263 20.3545 8.78237 20.2526 8.73425 20.14C8.68614 20.0273 8.66114 19.9061 8.66076 19.7836C8.66038 19.6611 8.68461 19.5398 8.73202 19.4268C8.77943 19.3138 8.84905 19.2116 8.93675 19.126L11.4034 16.68V16.68ZM13.0497 19.5338C13.4162 19.8962 13.3632 20.5357 12.9307 20.96C12.4988 21.3836 11.849 21.4338 11.4818 21.0707L11.1256 20.72L12.6852 19.1735L13.0496 19.5331L13.0497 19.5338Z" fill="white"/>
</g>
<defs>
<clipPath id="clip0_1045_146">
<rect width="22" height="22" fill="white"/>
</clipPath>
</defs>
</svg>
