<svg width="28" height="28" viewBox="0 0 28 28" fill="none" xmlns="http://www.w3.org/2000/svg">
<g id="Frame">
<path id="Vector" d="M3.66309 10.0285C4.16348 10.0285 4.56817 9.62383 4.56817 9.12344V5.84219C4.56817 5.66719 4.71035 5.525 4.88535 5.525H6.77481C6.88965 5.525 6.99629 5.58789 7.05098 5.68906L7.78379 7.00156C8.1584 7.67422 8.87207 8.09258 9.64317 8.09258H23.1127C23.2877 8.09258 23.4299 8.23477 23.4299 8.40977V9.12344C23.4299 9.62383 23.8346 10.0285 24.335 10.0285C24.8354 10.0285 25.24 9.62383 25.24 9.12344V8.40977C25.24 7.23672 24.2857 6.28242 23.1127 6.28242H9.64317C9.52832 6.28242 9.42168 6.21953 9.36699 6.11836L8.63418 4.80586C8.25957 4.1332 7.5459 3.71484 6.77481 3.71484H4.88535C3.71231 3.71484 2.75801 4.66914 2.75801 5.84219V9.12344C2.75801 9.62383 3.1627 10.0285 3.66309 10.0285ZM25.735 11.1305C25.3385 10.6711 24.7643 10.4086 24.1572 10.4086H3.83809C3.23106 10.4086 2.65684 10.6711 2.26035 11.1305C1.86387 11.5898 1.68887 12.1969 1.7791 12.7957L3.23653 22.5164C3.38965 23.5445 4.25645 24.2883 5.29278 24.2883H22.6971C23.7197 24.2883 24.6029 23.5254 24.7533 22.5164L26.2107 12.7957C26.3064 12.1969 26.1314 11.5898 25.735 11.1305ZM24.4252 12.5277L22.9678 22.2484C22.9486 22.3797 22.8338 22.4781 22.6998 22.4781H5.29824C5.16426 22.4781 5.05215 22.3824 5.03028 22.2484L3.57285 12.5277C3.55645 12.4211 3.60567 12.3473 3.63574 12.3117C3.66582 12.2762 3.73145 12.2188 3.84082 12.2188H24.16C24.2666 12.2188 24.335 12.2762 24.365 12.3117C24.3924 12.3473 24.4416 12.4211 24.4252 12.5277Z" fill="white"/>
<path id="Vector_2" d="M17.9434 14.4297H10.0574C9.55703 14.4297 9.15234 14.8344 9.15234 15.3348C9.15234 15.8352 9.55703 16.2398 10.0574 16.2398H17.9406C18.441 16.2398 18.8457 15.8352 18.8457 15.3348C18.8457 14.8344 18.4438 14.4297 17.9434 14.4297Z" fill="white"/>
</g>
</svg>
