<svg width="28" height="28" viewBox="0 0 28 28" fill="none" xmlns="http://www.w3.org/2000/svg">
<g id="Frame" clip-path="url(#clip0_1045_228)">
<path id="Vector" d="M15.996 17.6842C15.9464 17.7954 15.9207 17.9159 15.9208 18.0377C15.9208 18.2652 16.01 18.4822 16.171 18.6414L17.8965 20.3669C18.523 20.9934 19.6203 20.9969 20.2503 20.3669L25.9098 14.7092C26.5573 14.0582 26.5573 13.0029 25.908 12.3537L24.1825 10.6282C23.9253 10.3657 23.5158 10.2904 23.1728 10.4829L15.8963 3.20819C15.9628 3.08394 15.9995 2.94394 15.9995 2.80044C15.9995 2.56944 15.9103 2.35419 15.7475 2.19494L14.022 0.471188C13.392 -0.158812 12.2965 -0.155312 11.6683 0.471188L6.01055 6.12894C5.35955 6.77819 5.35955 7.83344 6.01055 8.48269L7.73605 10.2082C7.9828 10.4584 8.38705 10.5249 8.6933 10.3832L10.7565 12.4447L0.648547 22.5544C0.410547 22.7924 0.279297 23.1074 0.279297 23.4434C0.279297 23.7777 0.410547 24.0944 0.648547 24.3289L2.34955 26.0317C2.58755 26.2679 2.90255 26.3992 3.2368 26.3992C3.57105 26.3992 3.8878 26.2679 4.12405 26.0299L14.2338 15.9202L15.996 17.6842ZM10.0128 9.14594L14.6468 4.51369L21.869 11.7359L17.2333 16.3682L14.2338 13.3669L3.6988 23.9037C3.4503 24.1487 3.0233 24.1504 2.7748 23.9019C2.6523 23.7794 2.5823 23.6167 2.5823 23.4434C2.5823 23.2684 2.65055 23.1057 2.7748 22.9814L13.0963 12.6582L13.3115 12.4447L10.0128 9.14594ZM18.2483 18.0622C18.2483 17.9957 18.2745 17.9327 18.3218 17.8837L23.423 12.7824C23.4703 12.7352 23.535 12.7089 23.6015 12.7089C23.668 12.7089 23.7328 12.7352 23.78 12.7824L24.354 13.3582C24.3774 13.3813 24.3958 13.4089 24.4085 13.4392C24.4211 13.4696 24.4276 13.5021 24.4275 13.5349C24.4275 13.6014 24.4013 13.6644 24.354 13.7134L19.2528 18.8147C19.1583 18.9092 18.9903 18.9092 18.8958 18.8147L18.3218 18.2389C18.2985 18.2158 18.28 18.1882 18.2674 18.1579C18.2548 18.1276 18.2483 18.095 18.2483 18.0622ZM13.6948 2.80044C13.6948 2.86694 13.6685 2.93169 13.6213 2.97894L8.5183 8.08194C8.4238 8.17644 8.25405 8.17644 8.16305 8.08194L7.5663 7.48344C7.4683 7.38544 7.4683 7.22444 7.5663 7.12644L12.6675 2.02519C12.7148 1.97794 12.7795 1.95169 12.8478 1.95169C12.9143 1.95169 12.979 1.97794 13.0245 2.02519L13.623 2.62369C13.6689 2.67109 13.6947 2.73445 13.6948 2.80044ZM24.1633 23.5432H14.4193C12.4593 23.5432 10.865 25.1374 10.865 27.0957V27.9987H27.7193V27.0957C27.7175 25.1374 26.125 23.5432 24.1633 23.5432ZM12.9213 26.1944C13.2328 25.6764 13.7928 25.3492 14.4175 25.3492H24.1633C24.7898 25.3492 25.3498 25.6764 25.6595 26.1944H12.9213Z" fill="white"/>
</g>
<defs>
<clipPath id="clip0_1045_228">
<rect width="28" height="28" fill="white"/>
</clipPath>
</defs>
</svg>
