<svg width="28" height="28" viewBox="0 0 28 28" fill="none" xmlns="http://www.w3.org/2000/svg">
<g id="Frame" clip-path="url(#clip0_1045_213)">
<path id="Vector" d="M24.5686 3.52756L14.4314 0H13.5686L3.43137 3.52756C3.21569 3.74803 3 3.9685 3 4.18898V18.7402C3 18.9606 3.21569 19.4016 3.43137 19.622L13.5686 27.7795C13.5686 27.7795 13.7843 28 14 28C14.2157 28 14.2157 28 14.4314 27.7795L24.5686 19.622C24.7843 19.4016 25 19.1811 25 18.7402V4.18898C25 3.9685 24.7843 3.74803 24.5686 3.52756ZM22.8431 18.0787L14 25.1339L5.15686 18.0787V5.29134L14 2.20472L22.8431 5.29134V18.0787ZM7.31373 18.0787L8.82353 18.9606H9.03922L11.8431 13.8898L15.2941 15.874C15.9412 16.0945 16.3725 16.0945 16.8039 15.6535L20.902 8.8189V8.59842L19.1765 7.71654H18.9608L15.5098 13.4488L11.8431 11.4646C11.4118 11.2441 10.7647 11.4646 10.549 11.9055L7.31373 17.8583V18.0787Z" fill="white"/>
</g>
<defs>
<clipPath id="clip0_1045_213">
<rect width="28" height="28" fill="white"/>
</clipPath>
</defs>
</svg>
