<svg width="28" height="28" viewBox="0 0 28 28" fill="none" xmlns="http://www.w3.org/2000/svg">
<g id="Frame">
<path id="Vector" d="M24.5614 7.52244H3.43859C1.54245 7.52244 0 9.11008 0 11.0618V24.4607C0 26.4124 1.54245 28 3.43859 28H24.5614C26.4571 28 28 26.4124 28 24.4607V11.0618C28 9.10957 26.4571 7.52244 24.5614 7.52244ZM26.0351 24.4607C26.0351 25.297 25.3739 25.9775 24.5614 25.9775H3.43859C2.6261 25.9775 1.96491 25.2969 1.96491 24.4607V11.0618C1.96491 10.2254 2.6261 9.54492 3.43859 9.54492H24.5614C25.3739 9.54492 26.0351 10.2254 26.0351 11.0618V24.4607ZM18.5719 16.9108C18.9963 16.9108 19.3416 16.5558 19.3416 16.1184C19.3416 15.6811 18.9963 15.3256 18.5719 15.3256H15.6908L18.6289 12.302C18.9295 11.9921 18.9295 11.4905 18.6289 11.1811C18.3282 10.8712 17.841 10.8712 17.5398 11.1811L14.0418 14.7826L10.5427 11.1811C10.2421 10.8712 9.7548 10.8712 9.45367 11.1811C9.15306 11.49 9.15306 11.9921 9.45367 12.302L12.3917 15.3256H9.42767C9.00225 15.3256 8.65789 15.6811 8.65789 16.1184C8.65789 16.5558 9.00225 16.9108 9.42767 16.9108H13.2298V18.6572H9.42767C9.00225 18.6572 8.65789 19.0121 8.65789 19.45C8.65789 19.8874 9.00225 20.2418 9.42767 20.2418H13.2298V23.9758C13.2298 24.4131 13.5741 24.7681 13.9995 24.7681C14.4245 24.7681 14.7693 24.4131 14.7693 23.9758V20.2418H18.5713C18.9957 20.2418 19.3411 19.8874 19.3411 19.45C19.3411 19.0121 18.9958 18.6572 18.5713 18.6572H14.7693V16.9108H18.5719ZM3.53047 6.26646H24.4691C25.0114 6.26646 25.4515 5.81346 25.4515 5.25523C25.4515 4.69652 25.0114 4.24398 24.4691 4.24398H3.53047C2.98816 4.24398 2.54801 4.6965 2.54801 5.25523C2.548 5.81346 2.98816 6.26646 3.53047 6.26646ZM6.14036 3.02245H21.8597C22.402 3.02245 22.8421 2.5694 22.8421 2.01122C22.8421 1.45252 22.402 1 21.8597 1H6.14035C5.59803 1 5.15788 1.45254 5.15788 2.01122C5.15788 2.5694 5.59754 3.02245 6.14036 3.02245Z" fill="white"/>
</g>
</svg>
