<svg width="28" height="28" viewBox="0 0 28 28" fill="none" xmlns="http://www.w3.org/2000/svg">
<g id="Frame">
<path id="Vector" d="M8.94914 3.40555C10.7904 2.43648 12.8746 2.01813 14.9499 2.20106C17.0252 2.38399 19.0028 3.16037 20.6438 4.4364C20.4196 5.16436 20.4613 5.94764 20.7616 6.648C21.0618 7.34837 21.6013 7.92079 22.2848 8.26425C22.9684 8.60771 23.752 8.70012 24.4974 8.52518C25.2428 8.35024 25.902 7.9192 26.3588 7.30811C26.8156 6.69703 27.0406 5.9452 26.994 5.1853C26.9474 4.42541 26.6322 3.7063 26.1042 3.15489C25.5761 2.60348 24.869 2.25522 24.1078 2.17157C23.3465 2.08791 22.58 2.27425 21.9435 2.69769C19.9397 1.15809 17.5271 0.233949 15.0021 0.0388587C12.4771 -0.156232 9.94972 0.386223 7.73067 1.59956L7.7767 1.63993C8.28292 2.14416 8.68168 2.74467 8.94914 3.40555ZM3.16816 12.9254C3.16834 11.4425 3.4791 9.97595 4.08066 8.61899H4.28645C5.04383 8.6201 5.77782 8.35818 6.36155 7.87849C6.94529 7.3988 7.3421 6.73148 7.48343 5.99185C7.62475 5.25222 7.5017 4.48676 7.13554 3.82774C6.76938 3.16872 6.18312 2.65754 5.47806 2.38256C4.77301 2.10757 3.99346 2.08604 3.27414 2.3217C2.55482 2.55736 1.94091 3.03539 1.53851 3.67319C1.13611 4.31099 0.970497 5.06849 1.07029 5.81477C1.17009 6.56105 1.52903 7.24924 2.08507 7.7604C1.3992 9.32252 1.03106 11.0041 1.00188 12.7083C0.972701 14.4124 1.28305 16.1055 1.91504 17.6899C2.54704 19.2743 3.48819 20.7187 4.68427 21.94C5.88036 23.1612 7.30773 24.1352 8.88416 24.8057C8.89674 24.0621 9.06359 23.329 9.37426 22.6525C7.51926 21.7818 5.95118 20.4053 4.85249 18.6833C3.75381 16.9613 3.1697 14.9645 3.16816 12.9254ZM24.5321 10.4223C25.1826 13.1292 24.7534 15.9814 23.3343 18.3805C21.9152 20.7796 19.6166 22.5393 16.9207 23.2904C16.5699 22.6139 15.9901 22.0823 15.2835 21.7893C14.5769 21.4964 13.7889 21.4608 13.0585 21.6889C12.3281 21.9171 11.7022 22.3942 11.2912 23.0363C10.8802 23.6784 10.7105 24.4441 10.8119 25.1984C10.9134 25.9527 11.2796 26.6471 11.846 27.1593C12.4123 27.6714 13.1423 27.9683 13.9074 27.9976C14.6724 28.0269 15.4233 27.7868 16.0276 27.3195C16.6319 26.8522 17.0508 26.1879 17.2104 25.4436C18.8715 25.0228 20.4325 24.2796 21.8034 23.2567C23.1743 22.2338 24.3282 20.9515 25.1985 19.4835C26.0688 18.0155 26.6383 16.3909 26.8743 14.7032C27.1104 13.0155 27.0082 11.2981 26.5737 9.64984C25.9535 10.0434 25.2586 10.3063 24.5321 10.4223Z" fill="white"/>
</g>
</svg>
