<svg width="26" height="26" viewBox="0 0 26 26" fill="none" xmlns="http://www.w3.org/2000/svg">
<g id="Frame">
<path id="Vector" d="M7.92946 2.52344C7.58716 2.52343 7.25089 2.61353 6.95445 2.78468C6.65801 2.95583 6.41185 3.202 6.2407 3.49844L1.31594 12.0283C1.14479 12.3248 1.05469 12.661 1.05469 13.0033C1.05469 13.3456 1.14479 13.6819 1.31594 13.9783L6.2407 22.5082C6.41185 22.8047 6.65801 23.0508 6.95444 23.222C7.25088 23.3931 7.58714 23.4832 7.92943 23.4832H15.6891C13.6403 22.3126 12.2566 20.1108 12.2451 17.5848C9.944 17.3048 8.16145 15.3445 8.16145 12.9679C8.16145 10.3991 10.2439 8.31661 12.8127 8.31661C14.6914 8.31661 16.31 9.43048 17.044 11.0338C17.6841 10.8351 18.3646 10.7281 19.07 10.7281C21.3339 10.7281 23.3404 11.8304 24.582 13.5275C24.6517 13.2776 24.6708 13.0162 24.6383 12.7588C24.6057 12.5014 24.5222 12.2531 24.3924 12.0283L19.4677 3.49844C19.2965 3.202 19.0504 2.95583 18.7539 2.78469C18.4575 2.61354 18.1212 2.52344 17.7789 2.52344H7.92946Z" fill="white"/>
<path id="Vector_2" d="M24.948 17.5648C24.948 20.7957 22.3289 23.4148 19.098 23.4148C15.8672 23.4148 13.248 20.7957 13.248 17.5648C13.248 14.334 15.8672 11.7148 19.098 11.7148C22.3289 11.7148 24.948 14.334 24.948 17.5648ZM21.6981 17.6276C21.6981 16.1916 20.534 15.0276 19.0981 15.0276C17.6621 15.0276 16.4981 16.1916 16.4981 17.6276C16.4981 19.0635 17.6621 20.2276 19.0981 20.2276C20.534 20.2276 21.6981 19.0635 21.6981 17.6276Z" fill="white"/>
</g>
</svg>
