<svg width="28" height="28" viewBox="0 0 28 28" fill="none" xmlns="http://www.w3.org/2000/svg">
<g id="Frame">
<path id="Vector" d="M8.6332 14.0013L11.0132 17.1746C11.1617 17.3727 11.2255 17.6216 11.1905 17.8666C11.1555 18.1117 11.0246 18.3328 10.8265 18.4813C10.6285 18.6298 10.3796 18.6936 10.1345 18.6586C9.8895 18.6236 9.66839 18.4927 9.51987 18.2946L6.71987 14.5613C6.5987 14.3997 6.5332 14.2032 6.5332 14.0013C6.5332 13.7994 6.5987 13.6029 6.71987 13.4413L9.51987 9.70796C9.59341 9.60991 9.68554 9.5273 9.79101 9.46485C9.89647 9.40241 10.0132 9.36134 10.1345 9.34401C10.2559 9.32668 10.3794 9.33341 10.4982 9.36383C10.6169 9.39425 10.7285 9.44776 10.8265 9.5213C10.9246 9.59484 11.0072 9.68697 11.0696 9.79244C11.1321 9.8979 11.1732 10.0146 11.1905 10.136C11.2078 10.2573 11.2011 10.3809 11.1707 10.4996C11.1403 10.6183 11.0867 10.7299 11.0132 10.828L8.6332 14.0013ZM19.7865 17.1746C19.638 17.3727 19.5742 17.6216 19.6093 17.8666C19.6443 18.1117 19.7752 18.3328 19.9732 18.4813C20.1712 18.6298 20.4201 18.6936 20.6652 18.6586C20.9102 18.6236 21.1313 18.4927 21.2799 18.2946L24.0799 14.5613C24.201 14.3997 24.2665 14.2032 24.2665 14.0013C24.2665 13.7994 24.201 13.6029 24.0799 13.4413L21.2799 9.70796C21.2063 9.60991 21.1142 9.5273 21.0087 9.46485C20.9033 9.40241 20.7865 9.36134 20.6652 9.34401C20.5439 9.32668 20.4203 9.33341 20.3016 9.36383C20.1828 9.39425 20.0713 9.44776 19.9732 9.5213C19.8751 9.59484 19.7925 9.68697 19.7301 9.79244C19.6676 9.8979 19.6266 10.0146 19.6093 10.136C19.5919 10.2573 19.5987 10.3809 19.6291 10.4996C19.6595 10.6183 19.713 10.7299 19.7865 10.828L22.1665 14.0013L19.7865 17.1746ZM15.3775 17.9372C15.32 18.1749 15.1716 18.3806 14.964 18.51C14.7565 18.6394 14.5064 18.6821 14.2677 18.629C14.0289 18.576 13.8206 18.4313 13.6874 18.2261C13.5542 18.021 13.5069 17.7718 13.5556 17.5321L15.4223 9.1321C15.4797 8.89436 15.6282 8.68867 15.8357 8.55928C16.0433 8.42989 16.2933 8.38714 16.5321 8.44022C16.7708 8.4933 16.9792 8.63798 17.1123 8.84312C17.2455 9.04827 17.2928 9.29748 17.2441 9.53716L15.3775 17.9372Z" fill="white"/>
<path id="Vector_2" d="M24.5752 20.6472C24.7621 20.4848 25.0058 20.4033 25.2528 20.4207C25.4998 20.438 25.7297 20.5527 25.8921 20.7396C26.0545 20.9265 26.136 21.1702 26.1187 21.4172C26.1013 21.6642 25.9866 21.8941 25.7997 22.0565L19.3691 27.7713C19.1994 27.9186 18.9824 27.9998 18.7577 28H4.75585C3.15519 28 1.86719 26.6765 1.86719 25.0563V2.94373C1.86719 1.32347 3.15519 0 4.75585 0H23.2452C24.8459 0 26.1339 1.32347 26.1339 2.94373V6.88053C26.1339 7.12807 26.0355 7.36547 25.8605 7.5405C25.6855 7.71553 25.4481 7.81387 25.2005 7.81387C24.953 7.81387 24.7156 7.71553 24.5406 7.5405C24.3655 7.36547 24.2672 7.12807 24.2672 6.88053V2.94373C24.2672 2.34267 23.8033 1.86667 23.2452 1.86667H4.75585C4.19772 1.86667 3.73385 2.34267 3.73385 2.94373V25.0563C3.73385 25.6573 4.19772 26.1333 4.75585 26.1333H18.4087L24.5761 20.6472H24.5752Z" fill="white"/>
<path id="Vector_3" d="M26.1342 21.3277C26.1342 21.5752 26.0359 21.8126 25.8609 21.9877C25.6858 22.1627 25.4484 22.261 25.2009 22.261C24.9534 22.261 24.716 22.1627 24.5409 21.9877C24.3659 21.8126 24.2676 21.5752 24.2676 21.3277V18.6677C24.2676 18.4202 24.3659 18.1828 24.5409 18.0077C24.716 17.8327 24.9534 17.7344 25.2009 17.7344C25.4484 17.7344 25.6858 17.8327 25.8609 18.0077C26.0359 18.1828 26.1342 18.4202 26.1342 18.6677V21.3277Z" fill="white"/>
</g>
</svg>
