<svg width="28" height="28" viewBox="0 0 28 28" fill="none" xmlns="http://www.w3.org/2000/svg">
<g id="Frame">
<path id="Vector" d="M17.8809 19.3258C17.7141 19.4926 17.6211 19.7141 17.6211 19.9492C17.6211 20.4305 18.0148 20.8242 18.4961 20.8242H25.95C26.4312 20.8242 26.825 20.4305 26.825 19.9492C26.825 19.468 26.4312 19.0742 25.95 19.0742H18.4961C18.2664 19.0742 18.0477 19.1617 17.8809 19.3258ZM25.95 22.4184H18.4961C18.0148 22.4184 17.6211 22.8121 17.6211 23.2934C17.6211 23.7746 18.0148 24.1684 18.4961 24.1684H25.95C26.4312 24.1684 26.825 23.7746 26.825 23.2934C26.825 22.8121 26.434 22.4184 25.95 22.4184ZM25.95 25.7707H18.4961C18.0148 25.7707 17.6211 26.1645 17.6211 26.6457C17.6211 27.127 18.0148 27.5207 18.4961 27.5207H25.95C26.4312 27.5207 26.825 27.127 26.825 26.6457C26.825 26.1617 26.434 25.7707 25.95 25.7707Z" fill="white"/>
<path id="Vector_2" d="M3.07806 25.4387C2.95502 25.168 2.91674 24.6758 2.92767 24.4105V24.3969C3.03978 18.7258 7.78939 14.1102 13.5152 14.1102C16.4191 14.1102 19.2355 15.3324 21.2425 17.4625L21.2589 17.4789H23.5531L23.4902 17.3941C23.0745 16.8336 22.6288 16.3195 22.1613 15.8656C20.8023 14.5367 19.1288 13.5305 17.316 12.9453C19.2054 11.6738 20.332 9.56836 20.332 7.29063C20.332 3.53359 17.2749 0.476562 13.5179 0.476562C9.76088 0.476562 6.70384 3.53359 6.70384 7.29063C6.70384 9.56563 7.83041 11.6711 9.7226 12.9453C7.91517 13.5223 6.24173 14.5285 4.87728 15.8574C2.5558 18.1187 1.24056 21.1348 1.17494 24.3504C1.16947 24.602 1.1722 25.477 1.48119 26.1605C1.97064 27.2434 3.17377 27.5113 3.80814 27.5004L16.0199 27.5113V25.7613L3.7972 25.7504C3.79174 25.7504 3.20658 25.723 3.07806 25.4387ZM13.5152 2.22656C16.307 2.22656 18.5792 4.49883 18.5792 7.29063C18.5792 10.0824 16.307 12.3547 13.5152 12.3547C10.7234 12.3547 8.45111 10.0824 8.45111 7.29063C8.45111 4.49883 10.7234 2.22656 13.5152 2.22656Z" fill="white"/>
</g>
</svg>
