<svg width="28" height="28" viewBox="0 0 28 28" fill="none" xmlns="http://www.w3.org/2000/svg">
<g id="Frame" clip-path="url(#clip0_1045_219)">
<path id="Vector" d="M14 0C6.272 0 0 6.272 0 14C0 21.728 6.272 28 14 28C21.728 28 28 21.728 28 14C28 6.272 21.728 0 14 0ZM14 26.1333C7.29867 26.1333 1.86667 20.7013 1.86667 14C1.86667 7.29867 7.29867 1.86667 14 1.86667C20.7013 1.86667 26.1333 7.29867 26.1333 14C26.1333 20.7013 20.7013 26.1333 14 26.1333ZM20.5333 10.2667C20.5333 7.69067 18.4427 5.6 15.8667 5.6C13.9813 5.6 8.4 5.6 8.4 5.6C7.87733 5.6 7.46667 6.01067 7.46667 6.53333V21.4667C7.46667 21.9893 7.87733 22.4 8.4 22.4C8.92267 22.4 9.33333 21.9893 9.33333 21.4667V14.9333C9.33333 14.9333 12.1707 14.9333 14.6347 14.9333C14.7093 15.0827 14.8027 15.2507 14.8773 15.4L18.6107 21.8587C18.872 22.3067 19.432 22.456 19.88 22.1947C20.328 21.9333 20.4773 21.3733 20.216 20.9253L16.7253 14.84C18.8907 14.448 20.5333 12.544 20.5333 10.2667ZM15.8667 13.0667C14.3173 13.0667 9.33333 13.0667 9.33333 13.0667V7.46667H15.8667C17.416 7.46667 18.6667 8.71733 18.6667 10.2667C18.6667 11.816 17.416 13.0667 15.8667 13.0667Z" fill="white"/>
</g>
<defs>
<clipPath id="clip0_1045_219">
<rect width="28" height="28" fill="white"/>
</clipPath>
</defs>
</svg>
