<svg width="28" height="28" viewBox="0 0 28 28" fill="none" xmlns="http://www.w3.org/2000/svg">
<g id="Frame" clip-path="url(#clip0_1045_205)">
<path id="Vector" d="M18.4194 13.4136H9.01538C8.77147 13.4136 8.53755 13.3167 8.36507 13.1442C8.1926 12.9717 8.0957 12.7378 8.0957 12.4939C8.0957 12.25 8.1926 12.0161 8.36507 11.8436C8.53755 11.6711 8.77147 11.5742 9.01538 11.5742H18.4194C18.6633 11.5742 18.8973 11.6711 19.0697 11.8436C19.2422 12.0161 19.3391 12.25 19.3391 12.4939C19.3391 12.7378 19.2422 12.9717 19.0697 13.1442C18.8973 13.3167 18.6633 13.4136 18.4194 13.4136ZM18.4194 17.6079H9.01538C8.77147 17.6079 8.53755 17.511 8.36507 17.3386C8.1926 17.1661 8.0957 16.9322 8.0957 16.6883C8.0957 16.4443 8.1926 16.2104 8.36507 16.0379C8.53755 15.8655 8.77147 15.7686 9.01538 15.7686H18.4194C18.6633 15.7686 18.8973 15.8655 19.0697 16.0379C19.2422 16.2104 19.3391 16.4443 19.3391 16.6883C19.3391 16.9322 19.2422 17.1661 19.0697 17.3386C18.8973 17.511 18.6633 17.6079 18.4194 17.6079Z" fill="white"/>
<path id="Vector_2" d="M13.9529 22.3523C13.8321 22.3523 13.7125 22.3285 13.6009 22.2823C13.4894 22.236 13.388 22.1683 13.3026 22.0829C13.2172 21.9975 13.1494 21.8961 13.1032 21.7845C13.057 21.673 13.0332 21.5534 13.0332 21.4326V12.4939C13.0332 12.25 13.1301 12.0161 13.3026 11.8436C13.475 11.6711 13.709 11.5742 13.9529 11.5742C14.1968 11.5742 14.4307 11.6711 14.6032 11.8436C14.7757 12.0161 14.8726 12.25 14.8726 12.4939V21.4326C14.8726 21.5534 14.8488 21.673 14.8026 21.7845C14.7563 21.8961 14.6886 21.9975 14.6032 22.0829C14.5178 22.1683 14.4164 22.236 14.3048 22.2823C14.1933 22.3285 14.0737 22.3523 13.9529 22.3523Z" fill="white"/>
<path id="Vector_3" d="M13.614 12.8714C13.4932 12.8715 13.3736 12.8478 13.2619 12.8016C13.1503 12.7554 13.0489 12.6877 12.9635 12.6023L8.43311 8.06948C8.34527 7.98464 8.27521 7.88316 8.22701 7.77095C8.17881 7.65875 8.15344 7.53807 8.15238 7.41595C8.15132 7.29384 8.17459 7.17274 8.22083 7.05971C8.26707 6.94669 8.33536 6.844 8.42171 6.75765C8.50806 6.6713 8.61075 6.60301 8.72377 6.55677C8.8368 6.51052 8.9579 6.48725 9.08002 6.48832C9.20213 6.48938 9.32281 6.51475 9.43502 6.56295C9.54722 6.61115 9.6487 6.68121 9.73354 6.76905L14.2663 11.3019C14.3949 11.4306 14.4825 11.5946 14.5178 11.7732C14.5531 11.9517 14.5347 12.1367 14.4649 12.3047C14.395 12.4728 14.2769 12.6163 14.1254 12.7172C13.974 12.8181 13.796 12.8718 13.614 12.8714Z" fill="white"/>
<path id="Vector_4" d="M14.2912 12.9385C14.1092 12.9385 13.9313 12.8846 13.78 12.7836C13.6287 12.6825 13.5108 12.5389 13.4411 12.3708C13.3715 12.2027 13.3533 12.0177 13.3888 11.8392C13.4243 11.6608 13.512 11.4969 13.6407 11.3683L18.1735 6.83545C18.2583 6.74762 18.3598 6.67755 18.472 6.62935C18.5842 6.58115 18.7049 6.55578 18.827 6.55472C18.9491 6.55366 19.0702 6.57693 19.1832 6.62317C19.2963 6.66942 19.3989 6.7377 19.4853 6.82406C19.5717 6.91041 19.6399 7.01309 19.6862 7.12612C19.7324 7.23914 19.7557 7.36024 19.7546 7.48236C19.7536 7.60447 19.7282 7.72515 19.68 7.83736C19.6318 7.94956 19.5617 8.05105 19.4739 8.13588L14.9411 12.6687C14.7688 12.8412 14.535 12.9382 14.2912 12.9385Z" fill="white"/>
<path id="Vector_5" d="M1.28247 12.3648C1.13766 12.3649 0.994618 12.333 0.863608 12.2713C0.732597 12.2096 0.616869 12.1197 0.524731 12.008C0.432592 11.8963 0.366329 11.7656 0.330698 11.6252C0.295066 11.4848 0.29095 11.3383 0.318645 11.1962C1.57983 4.70877 7.2978 0 13.9195 0C17.1101 0.000187931 20.2029 1.10109 22.676 3.1169C25.1491 5.13271 26.8511 7.94 27.4946 11.065C27.5468 11.3199 27.4956 11.5851 27.3523 11.8022C27.209 12.0194 26.9852 12.1707 26.7304 12.2229C26.4755 12.2751 26.2103 12.2239 25.9931 12.0805C25.776 11.9372 25.6247 11.7135 25.5725 11.4586C25.0196 8.77645 23.5585 6.3671 21.4356 4.63705C19.3127 2.90701 16.6581 1.96218 13.9195 1.96199C8.2371 1.96199 3.32723 6.00307 2.24384 11.5714C2.20036 11.7946 2.08072 11.9957 1.90536 12.1404C1.73001 12.2851 1.50983 12.3645 1.28247 12.3648Z" fill="white"/>
<path id="Vector_6" d="M1.30657 12.4274C1.08138 12.4264 0.863395 12.3479 0.689223 12.2052C0.515052 12.0624 0.395298 11.8641 0.350069 11.6435C0.304839 11.4229 0.336889 11.1934 0.440837 10.9936C0.544784 10.7939 0.714299 10.6359 0.92092 10.5464L4.15084 9.15459C4.26923 9.10348 4.39653 9.0762 4.52547 9.07432C4.65441 9.07245 4.78246 9.096 4.90228 9.14365C5.02211 9.19129 5.13137 9.26209 5.22382 9.352C5.31626 9.4419 5.39008 9.54914 5.44104 9.6676C5.49201 9.78605 5.51913 9.91339 5.52085 10.0423C5.52256 10.1713 5.49885 10.2993 5.45105 10.4191C5.40326 10.5388 5.33233 10.648 5.24231 10.7403C5.15229 10.8327 5.04495 10.9063 4.92644 10.9572L1.69407 12.3477C1.57165 12.4003 1.43981 12.4274 1.30657 12.4274ZM14.0785 28.0007C10.8879 28.0005 7.7951 26.8996 5.322 24.8838C2.8489 22.868 1.14695 20.0607 0.503385 16.9357C0.47754 16.8095 0.476806 16.6794 0.501225 16.5529C0.525645 16.4264 0.574741 16.306 0.645708 16.1985C0.716676 16.091 0.808126 15.9985 0.914837 15.9263C1.02155 15.8541 1.14143 15.8037 1.26764 15.7778C1.39385 15.752 1.52391 15.7512 1.65041 15.7757C1.7769 15.8001 1.89734 15.8492 2.00486 15.9201C2.11238 15.9911 2.20487 16.0826 2.27705 16.1893C2.34922 16.296 2.39967 16.4159 2.42552 16.5421C2.97839 19.2242 4.43953 21.6336 6.56241 23.3636C8.68528 25.0937 11.3399 26.0385 14.0785 26.0387C19.7609 26.0387 24.6708 21.9976 25.7535 16.4293C25.7772 16.3019 25.8258 16.1804 25.8966 16.0719C25.9674 15.9634 26.059 15.8701 26.1661 15.7971C26.2732 15.7242 26.3936 15.6733 26.5205 15.6472C26.6474 15.6211 26.7782 15.6204 26.9054 15.6451C27.0326 15.6699 27.1536 15.7195 27.2615 15.7913C27.3693 15.8631 27.4619 15.9555 27.5339 16.0632C27.6058 16.171 27.6557 16.2919 27.6807 16.419C27.7057 16.5461 27.7052 16.6769 27.6793 16.8039C26.4182 23.2919 20.6977 28.0007 14.0785 28.0007Z" fill="white"/>
<path id="Vector_7" d="M23.4603 18.9248C23.2344 18.9249 23.0153 18.8471 22.8401 18.7045C22.6649 18.5619 22.5443 18.3631 22.4987 18.1419C22.4531 17.9206 22.4853 17.6904 22.5897 17.4901C22.6942 17.2898 22.8646 17.1317 23.0722 17.0425L26.3045 15.6519C26.4232 15.5988 26.5512 15.5699 26.6812 15.5667C26.8112 15.5635 26.9404 15.5862 27.0616 15.6335C27.1827 15.6807 27.2932 15.7515 27.3867 15.8418C27.4802 15.9322 27.5548 16.0402 27.6062 16.1596C27.6576 16.279 27.6847 16.4074 27.6861 16.5374C27.6874 16.6674 27.6629 16.7963 27.6139 16.9168C27.565 17.0372 27.4926 17.1467 27.4009 17.2389C27.3093 17.3311 27.2003 17.4042 27.0801 17.4539L23.8478 18.8444C23.7254 18.8972 23.5936 18.9246 23.4603 18.9248Z" fill="white"/>
</g>
<defs>
<clipPath id="clip0_1045_205">
<rect width="28" height="28" fill="white"/>
</clipPath>
</defs>
</svg>
