<svg width="28" height="28" viewBox="0 0 28 28" fill="none" xmlns="http://www.w3.org/2000/svg">
<g id="Frame" clip-path="url(#clip0_1045_230)">
<path id="Vector" d="M27.9768 15.0521C27.978 14.2327 27.7464 13.4299 27.3088 12.7372C26.8712 12.0445 26.2457 11.4905 25.5053 11.1396C25.3157 5.18377 20.4647 0.398438 14.5281 0.398438H13.548C7.6193 0.398438 2.77396 5.16697 2.57074 11.1084C1.81259 11.4514 1.16961 12.0059 0.719105 12.7055C0.268602 13.4051 0.0297481 14.22 0.0312571 15.0521C0.0312571 17.3163 1.77065 19.1805 3.9709 19.3518C5.31665 24.5355 9.06986 27.6015 14.1448 27.6015C19.1422 27.6015 22.8946 24.5211 24.3156 19.3173C26.3798 19.0229 27.9768 17.2211 27.9768 15.0521ZM1.40421 15.0553C1.40421 13.4447 2.69635 12.1365 4.28613 12.1365H4.29653L4.36374 12.1429L4.47895 12.1325C4.50894 12.1364 4.53649 12.151 4.55651 12.1737C4.57652 12.1964 4.58763 12.2255 4.58777 12.2558V17.8508C4.58777 17.9196 4.54776 17.9844 4.43575 17.9708H4.36374L4.29653 17.978C2.69955 17.978 1.40421 16.6659 1.40421 15.0553ZM14.1416 26.2141C9.70034 26.2141 6.52398 23.6306 5.31985 19.0909C5.70629 18.8173 5.96072 18.3644 5.96072 17.8508V13.5519C8.25297 12.6958 9.66673 9.50905 9.72754 9.37224C9.80126 9.20418 9.80563 9.01381 9.7397 8.84255C9.67378 8.67128 9.54288 8.53298 9.3755 8.45774C9.29275 8.42098 9.20351 8.40104 9.11298 8.39907C9.02245 8.39711 8.93244 8.41316 8.84817 8.44628C8.76389 8.47941 8.68705 8.52896 8.62209 8.59205C8.55714 8.65514 8.50537 8.73051 8.4698 8.81378C8.16096 9.51625 7.18165 11.2733 5.94392 12.0277C5.89078 11.6723 5.71214 11.3476 5.44033 11.1125C5.16853 10.8774 4.82153 10.7474 4.46215 10.746C4.43495 10.746 4.40775 10.746 4.38134 10.7492L4.29653 10.746C4.18452 10.746 4.07251 10.7492 3.9637 10.7596C4.33974 5.74703 8.497 1.78659 13.5448 1.78659H14.5249C19.5758 1.78659 23.7291 5.74703 24.1083 10.7556C23.9754 10.742 23.8419 10.7353 23.7083 10.7356C23.6779 10.7356 23.6507 10.7356 23.6235 10.7388C23.5931 10.7356 23.5659 10.7356 23.5387 10.7356C23.1392 10.7379 22.7571 10.8988 22.4762 11.1828C22.1954 11.4668 22.0388 11.8507 22.0409 12.2502V13.3671C21.0232 12.607 19.8271 12.339 18.3349 12.0069C17.8708 11.9037 17.3692 11.7909 16.8195 11.6541C14.1144 10.9756 11.7646 7.37122 11.7414 7.33361C11.6929 7.25728 11.6297 7.19138 11.5555 7.13977C11.4812 7.08815 11.3974 7.05186 11.309 7.03301C11.2206 7.01416 11.1293 7.01314 11.0404 7.02999C10.9516 7.04685 10.867 7.08125 10.7917 7.13119C10.638 7.23208 10.5304 7.38958 10.4924 7.5694C10.4543 7.74923 10.4888 7.93681 10.5884 8.0913C10.6972 8.25931 13.2527 12.1878 16.4875 13.0006C17.05 13.1407 17.562 13.2567 18.0397 13.3639C20.0063 13.8023 21.108 14.0488 22.0401 15.3265V17.8484C22.0401 18.3044 22.2441 18.7149 22.5626 18.9925C21.6033 20.1782 19.1454 22.6489 15.3482 22.6513C15.0537 22.4393 14.6329 22.3089 14.1688 22.3089C13.2703 22.3089 12.5447 22.7985 12.5447 23.4018C12.5447 24.0083 13.2703 24.4979 14.1688 24.4979C14.7145 24.4979 15.1961 24.3163 15.4906 24.0395C18.3349 24.0051 20.4983 22.7953 21.9553 21.5792C20.3487 24.5635 17.6228 26.2149 14.1416 26.2149V26.2141ZM23.7491 17.974L23.6475 17.9604L23.5427 17.974C23.5263 17.9743 23.51 17.9714 23.4948 17.9653C23.4796 17.9593 23.4657 17.9502 23.454 17.9388C23.4423 17.9273 23.433 17.9136 23.4267 17.8985C23.4203 17.8834 23.4171 17.8672 23.4171 17.8508V12.2526C23.4171 12.1838 23.4715 12.1261 23.5427 12.1261L23.6235 12.1365L23.7083 12.1261C25.3021 12.1261 26.6006 13.4383 26.6006 15.0521C26.6006 16.6619 25.3053 17.974 23.7491 17.974Z" fill="white"/>
<path id="Vector_2" d="M10.0183 16.1094C9.27258 16.1094 8.66211 16.7222 8.66211 17.4759C8.66211 18.2296 9.26938 18.8465 10.0183 18.8465C10.1971 18.8454 10.3739 18.8091 10.5387 18.7397C10.7035 18.6702 10.853 18.5689 10.9786 18.4416C11.1041 18.3143 11.2034 18.1635 11.2706 17.9978C11.3379 17.8321 11.3718 17.6547 11.3704 17.4759C11.3704 16.719 10.7679 16.1094 10.0183 16.1094ZM18.0536 18.8465C18.7992 18.8465 19.4089 18.2336 19.4089 17.4759C19.4098 17.2972 19.3753 17.12 19.3077 16.9546C19.24 16.7891 19.1404 16.6386 19.0145 16.5117C18.8886 16.3848 18.739 16.2839 18.5741 16.2149C18.4092 16.1459 18.2323 16.11 18.0536 16.1094C17.3071 16.1094 16.6974 16.7222 16.6974 17.4759C16.6974 18.2296 17.3071 18.8465 18.0536 18.8465Z" fill="white"/>
</g>
<defs>
<clipPath id="clip0_1045_230">
<rect width="28" height="28" fill="white"/>
</clipPath>
</defs>
</svg>
