<svg width="24" height="24" viewBox="0 0 24 24" fill="none" xmlns="http://www.w3.org/2000/svg">
<g id="SVG">
<path id="Vector" d="M9.75 13C14 13 14 7.75 14 7.75C14 7.75 14 13 18.25 13C14 13 14 18.25 14 18.25C14 18.25 14 13 9.75 13Z" fill="#FA5FFF"/>
<path id="Vector_2" d="M5.75 8C8 8 8 5.75 8 5.75C8 5.75 8 8 10.25 8C8 8 8 10.25 8 10.25C8 10.25 8 8 5.75 8Z" fill="#FA5FFF"/>
<path id="Vector_3" d="M7.75 16.25H7.76M18.25 5.75H18.26M18.25 18.25H18.26M14 7.75C14 7.75 14 13 9.75 13C14 13 14 18.25 14 18.25C14 18.25 14 13 18.25 13C14 13 14 7.75 14 7.75ZM8 5.75C8 5.75 8 8 5.75 8C8 8 8 10.25 8 10.25C8 10.25 8 8 10.25 8C8 8 8 5.75 8 5.75Z" stroke="#FA5FFF" stroke-width="1.5" stroke-linecap="round" stroke-linejoin="round"/>
</g>
</svg>
