<svg width="26" height="27" viewBox="0 0 26 27" fill="none" xmlns="http://www.w3.org/2000/svg">
<g id="arrow-right-01">
<path id="Vector" opacity="0.5" d="M8.70333 6.42401C9.05077 5.95225 9.71487 5.85148 10.1866 6.19893C10.553 6.4688 10.9014 6.73873 11.2048 6.97548C11.8103 7.44811 12.6214 8.09876 13.4355 8.80566C14.2444 9.50799 15.0807 10.2867 15.7231 11.0137C16.0431 11.3759 16.3375 11.7504 16.5576 12.1155C16.7601 12.4515 16.9835 12.9132 16.9835 13.4183C16.9835 13.9234 16.7601 14.3851 16.5576 14.7211C16.3375 15.0863 16.0431 15.4606 15.7231 15.8229C15.0807 16.5499 14.2444 17.3286 13.4355 18.031C12.6214 18.7378 11.8103 19.3884 11.2048 19.8612C10.9014 20.0978 10.553 20.3678 10.1866 20.6377C9.71487 20.9851 9.05077 20.8844 8.70333 20.4126C8.56366 20.2229 8.49643 20.0023 8.49662 19.7835L8.49661 13.4183V7.05312C8.49643 6.83437 8.56366 6.61365 8.70333 6.42401Z" fill="white"/>
<path id="Vector_2" d="M15.723 11.0147C16.0431 11.3769 16.3375 11.7514 16.5576 12.1166C16.7601 12.4525 16.9835 12.9142 16.9835 13.4193C16.9835 13.9244 16.7601 14.3862 16.5576 14.7221C16.3375 15.0873 16.0431 15.4617 15.723 15.8239C15.0807 16.5509 14.2444 17.3296 13.4355 18.032C12.6214 18.7389 11.8103 19.3895 11.2048 19.8622C10.9014 20.0989 10.553 20.3689 10.1866 20.6387C9.71487 20.9862 9.05077 20.8854 8.70333 20.4136C8.56366 20.2239 8.49643 20.0033 8.49662 19.7845L8.49661 14.4801L13.8549 9.17578C14.5268 9.77576 15.1913 10.413 15.723 11.0147Z" fill="white"/>
</g>
</svg>
