<svg width="41" height="40" viewBox="0 0 41 40" fill="none" xmlns="http://www.w3.org/2000/svg">
<g id="SVG">
<path id="Vector" d="M8.41016 5H32.4102C33.2058 5 33.9689 5.31607 34.5315 5.87868C35.0941 6.44129 35.4102 7.20435 35.4102 8V27C35.4102 27.7956 35.0941 28.5587 34.5315 29.1213C33.9689 29.6839 33.2058 30 32.4102 30H27.1203C27.3089 29.3663 27.4102 28.695 27.4102 28C27.4102 24.134 24.2762 21 20.4102 21C16.5442 21 13.4102 24.134 13.4102 28C13.4102 28.695 13.5115 29.3663 13.7001 30H8.41016C7.61451 30 6.85145 29.6839 6.28884 29.1213C5.72623 28.5587 5.41016 27.7956 5.41016 27V8C5.41016 7.20435 5.72623 6.44129 6.28884 5.87868C6.85145 5.31607 7.61451 5 8.41016 5Z" fill="url(#paint0_linear_996_4071)" fill-opacity="0.24"/>
<path id="Vector_2" d="M8.41016 30C7.61451 30 6.85145 29.6839 6.28884 29.1213C5.72623 28.5587 5.41016 27.7956 5.41016 27V8C5.41016 7.20435 5.72623 6.44129 6.28884 5.87868C6.85145 5.31607 7.61451 5 8.41016 5H32.4102C33.2058 5 33.9689 5.31607 34.5315 5.87868C35.0941 6.44129 35.4102 7.20435 35.4102 8V27C35.4102 27.7956 35.0941 28.5587 34.5315 29.1213C33.9689 29.6839 33.2058 30 32.4102 30" stroke="white" stroke-linecap="round" stroke-linejoin="round"/>
<g id="Group" opacity="0.4">
<path id="Vector_3" d="M25.9359 16.5791C26.4087 16.8597 26.9452 17 27.5455 17C27.925 17 28.2764 16.9451 28.5999 16.8353C28.9265 16.7224 29.2142 16.5654 29.463 16.3641C29.7149 16.1597 29.9218 15.9187 30.0835 15.6412C30.2453 15.3606 30.3541 15.051 30.4101 14.7124H29.3557C29.3091 14.932 29.2297 15.1257 29.1178 15.2935C29.0089 15.4582 28.8736 15.5985 28.7119 15.7144C28.5501 15.8303 28.3713 15.9172 28.1754 15.9752C27.9794 16.0331 27.7726 16.0621 27.5549 16.0621C27.1567 16.0621 26.799 15.9645 26.4818 15.7693C26.1645 15.5741 25.9142 15.2874 25.7307 14.9092C25.5472 14.5279 25.4554 14.0597 25.4554 13.5046C25.4554 12.9525 25.5472 12.4858 25.7307 12.1046C25.9142 11.7203 26.1645 11.4305 26.4818 11.2353C26.799 11.037 27.1567 10.9379 27.5549 10.9379C27.7757 10.9379 27.9841 10.9684 28.18 11.0294C28.3791 11.0874 28.5579 11.1758 28.7165 11.2948C28.8783 11.4107 29.0136 11.554 29.1224 11.7248C29.2344 11.8926 29.3122 12.0878 29.3557 12.3105H30.4101C30.351 11.9475 30.2375 11.6227 30.0695 11.3359C29.9047 11.0492 29.6947 10.8068 29.4397 10.6085C29.1846 10.4102 28.8954 10.2593 28.5719 10.1556C28.2516 10.0519 27.9094 10 27.5455 10C26.9483 10 26.4134 10.1403 25.9406 10.4209C25.4678 10.7015 25.0962 11.1041 24.8256 11.6288C24.555 12.1503 24.4197 12.7756 24.4197 13.5046C24.4197 14.2275 24.5534 14.8512 24.8209 15.3758C25.0915 15.8974 25.4632 16.2985 25.9359 16.5791Z" fill="white"/>
<path id="Vector_4" fill-rule="evenodd" clip-rule="evenodd" d="M12.1602 15.0996L11.5252 16.9068H10.4102L12.9155 10.0898H14.1239L16.6199 16.9068H15.5095L14.8716 15.0996H12.1602ZM13.5407 11.3297L14.5679 14.2395H12.4624L13.4847 11.3297H13.5407Z" fill="white"/>
<path id="Vector_5" fill-rule="evenodd" clip-rule="evenodd" d="M21.9985 16.6643C21.6532 16.826 21.21 16.9068 20.6688 16.9068H18.0049V10.0898H20.5569C21.0483 10.0898 21.4557 10.1691 21.7792 10.3277C22.1027 10.4863 22.3437 10.7014 22.5024 10.9728C22.6641 11.2412 22.745 11.5432 22.745 11.8787C22.745 12.1624 22.6905 12.4018 22.5817 12.597C22.4759 12.7922 22.3344 12.9478 22.1571 13.0637C21.9798 13.1796 21.7854 13.265 21.5739 13.3199V13.3839C21.8041 13.3961 22.0296 13.4693 22.2504 13.6035C22.4712 13.7377 22.6532 13.9284 22.7963 14.1754C22.9425 14.4194 23.0155 14.7183 23.0155 15.0722C23.0155 15.4199 22.9316 15.7325 22.7636 16.0101C22.5988 16.2846 22.3437 16.5027 21.9985 16.6643ZM21.336 14.0016C21.1307 13.8948 20.8897 13.8414 20.6128 13.8414H19.0546V16.0284H20.5662C21.0701 16.0284 21.4309 15.9323 21.6486 15.7401C21.8663 15.548 21.9752 15.3085 21.9752 15.0218C21.9752 14.8053 21.9192 14.6085 21.8072 14.4316C21.6983 14.2517 21.5413 14.1083 21.336 14.0016ZM21.4106 11.2565C21.2116 11.0643 20.9052 10.9682 20.4915 10.9682H19.0546V13.0408H20.4636C20.6968 13.0408 20.9083 12.9966 21.0981 12.9081C21.2878 12.8197 21.4371 12.6946 21.5459 12.5329C21.6579 12.3682 21.7139 12.1776 21.7139 11.961C21.7139 11.6804 21.6128 11.4456 21.4106 11.2565Z" fill="white"/>
</g>
<path id="Vector_6" d="M27.4102 28C27.4102 29.7135 26.7945 31.2832 25.7723 32.5C24.4882 34.0285 22.5627 35 20.4102 35C16.5442 35 13.4102 31.866 13.4102 28C13.4102 24.134 16.5442 21 20.4102 21C24.2762 21 27.4102 24.134 27.4102 28Z" fill="url(#paint1_linear_996_4071)" fill-opacity="0.24"/>
<path id="Vector_7" d="M25.7723 32.5C26.7945 31.2832 27.4102 29.7135 27.4102 28C27.4102 24.134 24.2762 21 20.4102 21C16.5442 21 13.4102 24.134 13.4102 28C13.4102 31.866 16.5442 35 20.4102 35C22.5627 35 24.4882 34.0285 25.7723 32.5ZM25.7723 32.5L29.2723 36" stroke="white" stroke-linecap="round" stroke-linejoin="round"/>
<path id="Vector_8" d="M17.4102 28L19.4102 30L23.4102 26" stroke="white" stroke-linecap="round" stroke-linejoin="round"/>
</g>
<defs>
<linearGradient id="paint0_linear_996_4071" x1="20.4102" y1="5" x2="20.4102" y2="30" gradientUnits="userSpaceOnUse">
<stop stop-color="white" stop-opacity="0"/>
<stop offset="1" stop-color="white"/>
</linearGradient>
<linearGradient id="paint1_linear_996_4071" x1="20.4102" y1="21" x2="20.4102" y2="35" gradientUnits="userSpaceOnUse">
<stop stop-color="white" stop-opacity="0"/>
<stop offset="1" stop-color="white"/>
</linearGradient>
</defs>
</svg>
