<svg width="40" height="40" viewBox="0 0 40 40" fill="none" xmlns="http://www.w3.org/2000/svg">
<g id="SVG">
<path id="Vector" d="M27 8V6C27 5.73478 26.8946 5.48043 26.7071 5.29289C26.5196 5.10536 26.2652 5 26 5H6C5.73478 5 5.48043 5.10536 5.29289 5.29289C5.10536 5.48043 5 5.73478 5 6V34C5 34.2652 5.10536 34.5196 5.29289 34.7071C5.48043 34.8946 5.73478 35 6 35H26C26.2652 35 26.5196 34.8946 26.7071 34.7071C26.8946 34.5196 27 34.2652 27 34V20" fill="url(#paint0_linear_996_4169)" fill-opacity="0.24"/>
<path id="Vector_2" d="M27 8V6C27 5.73478 26.8946 5.48043 26.7071 5.29289C26.5196 5.10536 26.2652 5 26 5H6C5.73478 5 5.48043 5.10536 5.29289 5.29289C5.10536 5.48043 5 5.73478 5 6V34C5 34.2652 5.10536 34.5196 5.29289 34.7071C5.48043 34.8946 5.73478 35 6 35H26C26.2652 35 26.5196 34.8946 26.7071 34.7071C26.8946 34.5196 27 34.2652 27 34V20" stroke="#F83A3A" stroke-linecap="round" stroke-linejoin="round"/>
<path id="Vector_3" d="M5 32C5 32.7956 5.31607 33.5587 5.87868 34.1213C6.44129 34.6839 7.20435 35 8 35H24C24.7956 35 25.5587 34.6839 26.1213 34.1213C26.6839 33.5587 27 32.7956 27 32V31H5V32Z" fill="#F83A3A" stroke="#F83A3A"/>
<path id="Vector_4" d="M10 26V24H22V26H10Z" fill="#F83A3A" stroke="#F83A3A" stroke-linecap="round" stroke-linejoin="round"/>
<path id="Vector_5" opacity="0.4" d="M10 20H22" stroke="#F83A3A" stroke-linecap="round" stroke-linejoin="round"/>
<path id="Vector_6" d="M24 14H34" stroke="#F83A3A" stroke-linecap="round" stroke-linejoin="round"/>
<path id="Vector_7" d="M35 14L31 11V17L35 14Z" fill="#F83A3A" stroke="#F83A3A" stroke-linecap="round" stroke-linejoin="round"/>
<path id="Vector_8" fill-rule="evenodd" clip-rule="evenodd" d="M14.25 33C14.25 32.5858 14.5858 32.25 15 32.25H17C17.4142 32.25 17.75 32.5858 17.75 33C17.75 33.4142 17.4142 33.75 17 33.75H15C14.5858 33.75 14.25 33.4142 14.25 33Z" fill="#080624"/>
</g>
<defs>
<linearGradient id="paint0_linear_996_4169" x1="16" y1="5" x2="16" y2="35" gradientUnits="userSpaceOnUse">
<stop stop-color="#7000FF" stop-opacity="0"/>
<stop offset="1" stop-color="#7000FF"/>
</linearGradient>
</defs>
</svg>
