<svg width="40" height="41" viewBox="0 0 40 41" fill="none" xmlns="http://www.w3.org/2000/svg">
<g id="SVG">
<path id="Vector" d="M20 33.3359C27.1797 33.3359 33 27.5156 33 20.3359C33 13.1562 27.1797 7.33594 20 7.33594C12.8203 7.33594 7 13.1562 7 20.3359C7 27.5156 12.8203 33.3359 20 33.3359Z" fill="url(#paint0_linear_996_4151)" fill-opacity="0.24" stroke="#F83A3A" stroke-linecap="round" stroke-linejoin="round"/>
<path id="Vector_2" opacity="0.4" d="M20 18.3359C20.5304 18.3359 21.0391 18.5466 21.4142 18.9217C21.7893 19.2968 22 19.8055 22 20.3359C22 20.8663 21.7893 21.375 21.4142 21.7501C21.0391 22.1252 20.5304 22.3359 20 22.3359C19.4696 22.3359 18.9609 22.1252 18.5858 21.7501C18.2107 21.375 18 20.8663 18 20.3359C18 19.8055 18.2107 19.2968 18.5858 18.9217C18.9609 18.5466 19.4696 18.3359 20 18.3359Z" fill="#030014" stroke="#F83A3A" stroke-linecap="round" stroke-linejoin="round"/>
<path id="Vector_3" d="M20 5.33594C20.5304 5.33594 21.0391 5.54665 21.4142 5.92173C21.7893 6.2968 22 6.80551 22 7.33594C22 7.86637 21.7893 8.37508 21.4142 8.75015C21.0391 9.12523 20.5304 9.33594 20 9.33594C19.4696 9.33594 18.9609 9.12523 18.5858 8.75015C18.2107 8.37508 18 7.86637 18 7.33594C18 6.80551 18.2107 6.2968 18.5858 5.92173C18.9609 5.54665 19.4696 5.33594 20 5.33594ZM20 31.3359C20.5304 31.3359 21.0391 31.5466 21.4142 31.9217C21.7893 32.2968 22 32.8055 22 33.3359C22 33.8663 21.7893 34.375 21.4142 34.7501C21.0391 35.1252 20.5304 35.3359 20 35.3359C19.4696 35.3359 18.9609 35.1252 18.5858 34.7501C18.2107 34.375 18 33.8663 18 33.3359C18 32.8055 18.2107 32.2968 18.5858 31.9217C18.9609 31.5466 19.4696 31.3359 20 31.3359ZM33 18.3359C33.5304 18.3359 34.0391 18.5466 34.4142 18.9217C34.7893 19.2968 35 19.8055 35 20.3359C35 20.8663 34.7893 21.375 34.4142 21.7501C34.0391 22.1252 33.5304 22.3359 33 22.3359C32.4696 22.3359 31.9609 22.1252 31.5858 21.7501C31.2107 21.375 31 20.8663 31 20.3359C31 19.8055 31.2107 19.2968 31.5858 18.9217C31.9609 18.5466 32.4696 18.3359 33 18.3359ZM7 18.3359C7.53043 18.3359 8.03914 18.5466 8.41421 18.9217C8.78929 19.2968 9 19.8055 9 20.3359C9 20.8663 8.78929 21.375 8.41421 21.7501C8.03914 22.1252 7.53043 22.3359 7 22.3359C6.46957 22.3359 5.96086 22.1252 5.58579 21.7501C5.21071 21.375 5 20.8663 5 20.3359C5 19.8055 5.21071 19.2968 5.58579 18.9217C5.96086 18.5466 6.46957 18.3359 7 18.3359Z" fill="#030014" stroke="#F83A3A" stroke-linecap="round" stroke-linejoin="round"/>
</g>
<defs>
<linearGradient id="paint0_linear_996_4151" x1="20" y1="7.33594" x2="20" y2="33.3359" gradientUnits="userSpaceOnUse">
<stop stop-color="#7000FF" stop-opacity="0"/>
<stop offset="1" stop-color="#7000FF"/>
</linearGradient>
</defs>
</svg>
