<svg width="21" height="21" viewBox="0 0 21 21" fill="none" xmlns="http://www.w3.org/2000/svg">
<path id="Vector" fill-rule="evenodd" clip-rule="evenodd" d="M1.52968 0.944336C1.20147 0.944336 0.886707 1.07471 0.65463 1.30679C0.422554 1.53887 0.292175 1.85363 0.292175 2.18184C0.292175 2.51004 0.422554 2.8248 0.65463 3.05688C0.886707 3.28896 1.20147 3.41934 1.52968 3.41934H10.6047C10.9329 3.41934 11.2476 3.28896 11.4797 3.05688C11.7118 2.8248 11.8422 2.51004 11.8422 2.18184C11.8422 1.85363 11.7118 1.53887 11.4797 1.30679C11.2476 1.07471 10.9329 0.944336 10.6047 0.944336H1.52968ZM16.3797 0.944336C16.0515 0.944336 15.7367 1.07471 15.5046 1.30679C15.2726 1.53887 15.1422 1.85363 15.1422 2.18184C15.1422 2.51004 15.2726 2.8248 15.5046 3.05688C15.7367 3.28896 16.0515 3.41934 16.3797 3.41934H18.8547C19.1829 3.41934 19.4976 3.28896 19.7297 3.05688C19.9618 2.8248 20.0922 2.51004 20.0922 2.18184C20.0922 1.85363 19.9618 1.53887 19.7297 1.30679C19.4976 1.07471 19.1829 0.944336 18.8547 0.944336H16.3797ZM10.1922 19.5068C10.1922 19.1786 10.3226 18.8639 10.5546 18.6318C10.7867 18.3997 11.1015 18.2693 11.4297 18.2693H18.8547C19.1829 18.2693 19.4976 18.3997 19.7297 18.6318C19.9618 18.8639 20.0922 19.1786 20.0922 19.5068C20.0922 19.835 19.9618 20.1498 19.7297 20.3819C19.4976 20.614 19.1829 20.7443 18.8547 20.7443H11.4297C11.1015 20.7443 10.7867 20.614 10.5546 20.3819C10.3226 20.1498 10.1922 19.835 10.1922 19.5068ZM1.52968 18.2693C1.20147 18.2693 0.886707 18.3997 0.65463 18.6318C0.422554 18.8639 0.292175 19.1786 0.292175 19.5068C0.292175 19.835 0.422554 20.1498 0.65463 20.3819C0.886707 20.614 1.20147 20.7443 1.52968 20.7443H5.65468C5.98288 20.7443 6.29764 20.614 6.52972 20.3819C6.7618 20.1498 6.89218 19.835 6.89218 19.5068C6.89218 19.1786 6.7618 18.8639 6.52972 18.6318C6.29764 18.3997 5.98288 18.2693 5.65468 18.2693H1.52968ZM0.292175 13.7318C0.292175 13.4036 0.422554 13.0889 0.65463 12.8568C0.886707 12.6247 1.20147 12.4943 1.52968 12.4943H8.95467C9.28288 12.4943 9.59764 12.6247 9.82972 12.8568C10.0618 13.0889 10.1922 13.4036 10.1922 13.7318C10.1922 14.06 10.0618 14.3748 9.82972 14.6069C9.59764 14.839 9.28288 14.9693 8.95467 14.9693H1.52968C1.20147 14.9693 0.886707 14.839 0.65463 14.6069C0.422554 14.3748 0.292175 14.06 0.292175 13.7318ZM14.7297 12.4943C14.4015 12.4943 14.0867 12.6247 13.8546 12.8568C13.6226 13.0889 13.4922 13.4036 13.4922 13.7318C13.4922 14.06 13.6226 14.3748 13.8546 14.6069C14.0867 14.839 14.4015 14.9693 14.7297 14.9693H18.8547C19.1829 14.9693 19.4976 14.839 19.7297 14.6069C19.9618 14.3748 20.0922 14.06 20.0922 13.7318C20.0922 13.4036 19.9618 13.0889 19.7297 12.8568C19.4976 12.6247 19.1829 12.4943 18.8547 12.4943H14.7297ZM0.292175 7.95684C0.292175 7.62863 0.422554 7.31387 0.65463 7.08179C0.886707 6.84971 1.20147 6.71934 1.52968 6.71934H4.00468C4.33288 6.71934 4.64764 6.84971 4.87972 7.08179C5.1118 7.31387 5.24218 7.62863 5.24218 7.95684C5.24218 8.28504 5.1118 8.5998 4.87972 8.83188C4.64764 9.06396 4.33288 9.19434 4.00468 9.19434H1.52968C1.20147 9.19434 0.886707 9.06396 0.65463 8.83188C0.422554 8.5998 0.292175 8.28504 0.292175 7.95684ZM9.77968 6.71934C9.45147 6.71934 9.13671 6.84971 8.90463 7.08179C8.67255 7.31387 8.54218 7.62863 8.54218 7.95684C8.54218 8.28504 8.67255 8.5998 8.90463 8.83188C9.13671 9.06396 9.45147 9.19434 9.77968 9.19434H18.8547C19.1829 9.19434 19.4976 9.06396 19.7297 8.83188C19.9618 8.5998 20.0922 8.28504 20.0922 7.95684C20.0922 7.62863 19.9618 7.31387 19.7297 7.08179C19.4976 6.84971 19.1829 6.71934 18.8547 6.71934H9.77968Z" fill="white"/>
</svg>
