<svg width="21" height="24" viewBox="0 0 21 24" fill="none" xmlns="http://www.w3.org/2000/svg">
<path id="Vector" d="M7.62337 3.18223H5.43712C4.5619 3.18223 3.72253 3.5299 3.10366 4.14877C2.48479 4.76764 2.13712 5.60701 2.13712 6.48223V18.8572C2.13712 19.7324 2.48479 20.5718 3.10366 21.1907C3.72253 21.8095 4.5619 22.1572 5.43712 22.1572H16.1621C17.0373 22.1572 17.8767 21.8095 18.4956 21.1907C19.1144 20.5718 19.4621 19.7324 19.4621 18.8572V6.48223C19.4621 5.60701 19.1144 4.76764 18.4956 4.14877C17.8767 3.5299 17.0373 3.18223 16.1621 3.18223H13.9759M13.9099 3.63598L13.4281 5.32393C13.2649 5.8952 12.9201 6.39779 12.4459 6.75564C11.9716 7.11349 11.3937 7.30712 10.7996 7.30723C9.57862 7.30723 8.50612 6.49873 8.17117 5.32393L7.68772 3.63598C7.61745 3.39032 7.6052 3.1317 7.65192 2.88051C7.69864 2.62931 7.80306 2.39239 7.95696 2.18843C8.11085 1.98447 8.31 1.81903 8.53873 1.70516C8.76746 1.59128 9.01951 1.53208 9.27502 1.53223H12.3242C12.5797 1.53208 12.8318 1.59128 13.0605 1.70516C13.2892 1.81903 13.4884 1.98447 13.6423 2.18843C13.7962 2.39239 13.9006 2.62931 13.9473 2.88051C13.994 3.1317 13.9801 3.39032 13.9099 3.63598Z" stroke="white" stroke-width="2.475" stroke-linecap="round" stroke-linejoin="round"/>
</svg>
