<svg width="41" height="40" viewBox="0 0 41 40" fill="none" xmlns="http://www.w3.org/2000/svg">
<g id="SVG">
<path id="Vector" d="M20.803 25.9992V34.3992M20.803 25.9992C24.3563 25.9992 27.4588 24.0687 29.1187 21.1992M20.803 25.9992C17.2496 25.9992 14.1472 24.0687 12.4873 21.1992M14.8027 34.3992H26.8027" stroke="white" stroke-linecap="round" stroke-linejoin="round"/>
<path id="Vector_2" d="M26.7998 11.6016C26.7998 8.28785 24.1135 5.60156 20.7998 5.60156C17.4861 5.60156 14.7998 8.28785 14.7998 11.6016V16.4016C14.7998 19.7153 17.4861 22.4016 20.7998 22.4016C24.1135 22.4016 26.7998 19.7153 26.7998 16.4016V11.6016Z" fill="url(#paint0_linear_996_4045)" fill-opacity="0.32" stroke="white" stroke-linecap="round" stroke-linejoin="round"/>
<path id="Vector_3" d="M24.7998 14.5294H23.7998L23.1998 13.2353L22.2998 15L20.7998 13L19.8998 15L18.6998 13.4706L17.7998 14.6471H16.7998" stroke="white" stroke-opacity="0.32" stroke-linecap="round" stroke-linejoin="round"/>
</g>
<defs>
<linearGradient id="paint0_linear_996_4045" x1="20.7998" y1="5.60156" x2="20.7998" y2="22.4016" gradientUnits="userSpaceOnUse">
<stop stop-color="white" stop-opacity="0"/>
<stop offset="1" stop-color="white"/>
</linearGradient>
</defs>
</svg>
