<svg width="40" height="40" viewBox="0 0 40 40" fill="none" xmlns="http://www.w3.org/2000/svg">
<g id="SVG">
<path id="Vector" d="M27 23C29.726 22.434 32 19.894 32 17C32 15.4087 31.3679 13.8826 30.2426 12.7574C29.1174 11.6321 27.5913 11 26 11C26 9.4087 25.3679 7.88258 24.2426 6.75736C23.1174 5.63214 21.5913 5 20 5C18.4087 5 16.8826 5.63214 15.7574 6.75736C14.6321 7.88258 14 9.4087 14 11C12.4087 11 10.8826 11.6321 9.75736 12.7574C8.63214 13.8826 8 15.4087 8 17C8 19.88 10.292 22.42 13 23" fill="url(#paint0_linear_996_4190)" fill-opacity="0.24"/>
<path id="Vector_2" d="M27 23C29.726 22.434 32 19.894 32 17C32 15.4087 31.3679 13.8826 30.2426 12.7574C29.1174 11.6321 27.5913 11 26 11C26 9.4087 25.3679 7.88258 24.2426 6.75736C23.1174 5.63214 21.5913 5 20 5C18.4087 5 16.8826 5.63214 15.7574 6.75736C14.6321 7.88258 14 9.4087 14 11C12.4087 11 10.8826 11.6321 9.75736 12.7574C8.63214 13.8826 8 15.4087 8 17C8 19.88 10.292 22.42 13 23" stroke="#F83A3A" stroke-linecap="round" stroke-linejoin="round"/>
<path id="Vector_3" opacity="0.32" d="M13 35V32H27V35H13Z" fill="#F83A3A" stroke="#F83A3A" stroke-linecap="round" stroke-linejoin="round"/>
<path id="Vector_4" d="M20 28V18" stroke="#F83A3A" stroke-linecap="round" stroke-linejoin="round"/>
<path id="Vector_5" d="M20 17L17 21H23L20 17Z" fill="#F83A3A" stroke="#F83A3A" stroke-linecap="round" stroke-linejoin="round"/>
</g>
<defs>
<linearGradient id="paint0_linear_996_4190" x1="20" y1="5" x2="20" y2="23" gradientUnits="userSpaceOnUse">
<stop stop-color="#7000FF" stop-opacity="0"/>
<stop offset="1" stop-color="#7000FF"/>
</linearGradient>
</defs>
</svg>
