<svg width="30" height="30" viewBox="0 0 30 30" fill="none" xmlns="http://www.w3.org/2000/svg">
<g id="profile-02">
<path id="Vector" opacity="0.4" d="M15.1698 3.48413C17.9738 3.48412 20.1621 3.48411 21.8675 3.69046C23.6028 3.90045 24.9762 4.33717 26.0633 5.31553C27.1641 6.30623 27.6681 7.57899 27.9079 9.18422C28.1398 10.737 28.1398 12.8733 28.1398 15.3809C28.1398 17.8885 28.1398 19.8732 27.9079 21.4259C27.6681 23.0311 27.1641 24.3039 26.0633 25.2947C24.9762 26.273 23.6028 26.7097 21.8675 26.9197C20.1621 27.126 17.9738 27.126 15.1698 27.126C12.3657 27.126 10.0509 27.126 8.34556 26.9197C6.61021 26.7097 5.23672 26.273 4.14966 25.2947C3.04888 24.3039 2.54483 23.0311 2.30504 21.4259C2.07308 19.8732 2.0731 17.8885 2.07312 15.3809C2.0731 12.8733 2.07308 10.737 2.30504 9.18422C2.54483 7.57899 3.04888 6.30623 4.14966 5.31553C5.23672 4.33717 6.61021 3.90045 8.34556 3.69046C10.0509 3.48411 12.3656 3.48412 15.1698 3.48413Z" fill="white"/>
<path id="Vector_2" d="M10.7933 9.54664C11.2066 9.54657 11.6026 9.5465 11.9282 9.59027C12.2931 9.63934 12.7023 9.75791 13.0414 10.0971C13.3807 10.4362 13.4993 10.8454 13.5482 11.2104C13.592 11.5359 13.592 11.9319 13.5919 12.3452V13.4163C13.592 13.8296 13.592 14.2257 13.5482 14.5512C13.4993 14.9161 13.3807 15.3253 13.0414 15.6644C12.7023 16.0037 12.2931 16.1222 11.9282 16.1712C11.6026 16.215 11.2066 16.215 10.7933 16.2149H9.72222C9.30891 16.215 8.91292 16.215 8.58739 16.1712C8.22243 16.1222 7.81323 16.0037 7.47407 15.6644C7.13492 15.3253 7.01635 14.9161 6.96728 14.5512C6.92352 14.2257 6.92359 13.8296 6.92365 13.4163V12.3452C6.92359 11.9319 6.92352 11.5359 6.96728 11.2104C7.01635 10.8454 7.13492 10.4362 7.47407 10.0971C7.81323 9.75791 8.22243 9.63934 8.58739 9.59027C8.91292 9.5465 9.30891 9.54657 9.72221 9.54664H10.7933Z" fill="white"/>
<path id="Vector_3" fill-rule="evenodd" clip-rule="evenodd" d="M6.92371 20.1552C6.92371 19.653 7.33082 19.2458 7.83301 19.2458H12.6826C13.1848 19.2458 13.5919 19.653 13.5919 20.1552C13.5919 20.6573 13.1848 21.0645 12.6826 21.0645H7.83301C7.33082 21.0645 6.92371 20.6573 6.92371 20.1552Z" fill="white"/>
<path id="Vector_4" fill-rule="evenodd" clip-rule="evenodd" d="M16.6219 10.4559C16.6219 9.95374 17.0291 9.54663 17.5313 9.54663H22.3809C22.8831 9.54663 23.2902 9.95374 23.2902 10.4559C23.2902 10.9581 22.8831 11.3652 22.3809 11.3652H17.5313C17.0291 11.3652 16.6219 10.9581 16.6219 10.4559Z" fill="white"/>
<path id="Vector_5" fill-rule="evenodd" clip-rule="evenodd" d="M16.6219 15.3075C16.6219 14.8053 17.0291 14.3982 17.5313 14.3982H22.3809C22.8831 14.3982 23.2902 14.8053 23.2902 15.3075C23.2902 15.8097 22.8831 16.2168 22.3809 16.2168H17.5313C17.0291 16.2168 16.6219 15.8097 16.6219 15.3075Z" fill="white"/>
<path id="Vector_6" fill-rule="evenodd" clip-rule="evenodd" d="M16.6219 20.1552C16.6219 19.653 17.0291 19.2458 17.5313 19.2458H22.3809C22.8831 19.2458 23.2902 19.653 23.2902 20.1552C23.2902 20.6573 22.8831 21.0645 22.3809 21.0645H17.5313C17.0291 21.0645 16.6219 20.6573 16.6219 20.1552Z" fill="white"/>
</g>
</svg>
