<svg width="41" height="40" viewBox="0 0 41 40" fill="none" xmlns="http://www.w3.org/2000/svg">
<g id="SVG">
<path id="Vector" d="M10.2986 9.87868C10.8612 9.31607 11.6243 9 12.4199 9H13.4199C13.9722 9 14.4199 9.44772 14.4199 10V14C14.4199 14.5523 14.8676 15 15.4199 15H21.4199C21.9722 15 22.4199 14.5523 22.4199 14V10C22.4199 9.44772 22.8676 9 23.4199 9H25.4199L30.2483 13.8284C30.9985 14.5786 31.4199 15.596 31.4199 16.6569V28C31.4199 28.7956 31.1038 29.5587 30.5412 30.1213C29.9786 30.6839 29.2155 31 28.4199 31H12.4199C10.763 31 9.41992 29.6569 9.41992 28V12C9.41992 11.2044 9.73599 10.4413 10.2986 9.87868Z" fill="url(#paint0_linear_996_4083)" fill-opacity="0.24"/>
<path id="Vector_2" d="M9.41992 18V12C9.41992 11.2044 9.73599 10.4413 10.2986 9.87868C10.8612 9.31607 11.6243 9 12.4199 9H13.4199C13.9722 9 14.4199 9.44772 14.4199 10V14C14.4199 14.5523 14.8676 15 15.4199 15H21.4199C21.9722 15 22.4199 14.5523 22.4199 14V10C22.4199 9.44772 22.8676 9 23.4199 9H24.5915C25.1219 9 25.6306 9.21071 26.0057 9.58579L30.2483 13.8284C30.9985 14.5786 31.4199 15.596 31.4199 16.6569V21V28C31.4199 28.7956 31.1038 29.5587 30.5412 30.1213C29.9786 30.6839 29.2155 31 28.4199 31H23.4199" stroke="white" stroke-linecap="round" stroke-linejoin="round"/>
<path id="Vector_3" d="M9.41992 29.25C13.6699 29.25 13.6699 24 13.6699 24C13.6699 24 13.6699 29.25 17.9199 29.25C13.6699 29.25 13.6699 34.5 13.6699 34.5C13.6699 34.5 13.6699 29.25 9.41992 29.25Z" fill="white"/>
<path id="Vector_4" d="M5.41992 24.25C7.66992 24.25 7.66992 22 7.66992 22C7.66992 22 7.66992 24.25 9.91992 24.25C7.66992 24.25 7.66992 26.5 7.66992 26.5C7.66992 26.5 7.66992 24.25 5.41992 24.25Z" fill="white"/>
<path id="Vector_5" d="M7.41992 32.5H7.42992M17.9199 22H17.9299M17.9199 34.5H17.9299M13.6699 24C13.6699 24 13.6699 29.25 9.41992 29.25C13.6699 29.25 13.6699 34.5 13.6699 34.5C13.6699 34.5 13.6699 29.25 17.9199 29.25C13.6699 29.25 13.6699 24 13.6699 24ZM7.66992 22C7.66992 22 7.66992 24.25 5.41992 24.25C7.66992 24.25 7.66992 26.5 7.66992 26.5C7.66992 26.5 7.66992 24.25 9.91992 24.25C7.66992 24.25 7.66992 22 7.66992 22Z" stroke="white" stroke-width="1.5" stroke-linecap="round" stroke-linejoin="round"/>
<path id="Vector_6" opacity="0.32" d="M19.9199 9H18.9199C18.6438 9 18.4199 9.22386 18.4199 9.5V12.5C18.4199 12.7761 18.6438 13 18.9199 13H19.9199C20.1961 13 20.4199 12.7761 20.4199 12.5V9.5C20.4199 9.22386 20.1961 9 19.9199 9Z" fill="white"/>
</g>
<defs>
<linearGradient id="paint0_linear_996_4083" x1="20.4199" y1="9" x2="20.4199" y2="31" gradientUnits="userSpaceOnUse">
<stop stop-color="white" stop-opacity="0"/>
<stop offset="1" stop-color="white"/>
</linearGradient>
</defs>
</svg>
