<svg width="30" height="30" viewBox="0 0 30 30" fill="none" xmlns="http://www.w3.org/2000/svg">
<g id="clipboard">
<path id="Vector" opacity="0.4" d="M21.1284 3.5742C22.7108 3.99577 23.987 4.33576 24.9546 4.73743C25.9592 5.1544 26.7589 5.68718 27.2713 6.56963C27.7842 7.45283 27.8487 8.4099 27.7092 9.48557C27.5751 10.5206 27.233 11.7903 26.8091 13.363L25.5339 18.095C25.1102 19.6678 24.7681 20.9375 24.3638 21.9005C23.9436 22.9014 23.4071 23.6966 22.521 24.2054C21.6356 24.7137 20.6765 24.7777 19.5969 24.6394C18.557 24.5062 17.2808 24.1662 15.6985 23.7445L14.4133 23.402C12.8308 22.9805 11.5547 22.6405 10.587 22.2388C9.58246 21.8219 8.78267 21.2891 8.27031 20.4067C7.7575 19.5234 7.69304 18.5664 7.83244 17.4907C7.96657 16.4557 8.30872 15.186 8.73255 13.6133L10.0077 8.88125C10.4315 7.3084 10.7736 6.03876 11.1779 5.0758C11.598 4.07487 12.1346 3.27957 13.0207 2.77083C13.9061 2.26253 14.8651 2.19849 15.9448 2.33684C16.9847 2.4701 18.2608 2.81011 19.8433 3.23176L21.1284 3.5742Z" fill="white"/>
<path id="Vector_2" d="M20.8003 9.24439C20.8003 10.2488 19.9861 11.063 18.9817 11.063C17.9773 11.063 17.1631 10.2488 17.1631 9.24439C17.1631 8.24 17.9773 7.42578 18.9817 7.42578C19.9861 7.42578 20.8003 8.24 20.8003 9.24439Z" fill="white"/>
<path id="Vector_3" fill-rule="evenodd" clip-rule="evenodd" d="M7.97891 7.98985C8.16888 8.63193 7.80236 9.30644 7.16028 9.4964C5.23534 10.0659 4.64051 10.4548 4.34805 10.9585C4.16116 11.2804 4.06813 11.7045 4.17457 12.5438C4.28553 13.4188 4.58358 14.5476 5.02638 16.2095L6.25377 20.8163C6.69659 22.4784 6.99964 23.6057 7.33849 24.4191C7.66364 25.1996 7.95432 25.5181 8.27347 25.7013C8.59363 25.8851 9.019 25.9767 9.86415 25.866C10.7435 25.7509 11.8782 25.4478 13.5466 24.9981L14.1197 24.8438C14.7663 24.6696 15.4317 25.0524 15.6059 25.6989C15.7801 26.3455 15.3973 27.0108 14.7507 27.1851L14.0954 27.3616C12.5299 27.7835 11.2381 28.1316 10.1789 28.2703C9.06711 28.4158 8.03184 28.3586 7.06621 27.8042C6.09957 27.2493 5.5304 26.3844 5.10015 25.3515C4.69086 24.3691 4.34787 23.0816 3.93276 21.5235L2.66127 16.7511C2.24605 15.1928 1.903 13.9053 1.76902 12.8488C1.62814 11.738 1.69141 10.7048 2.25107 9.74094C3.0828 8.30844 4.62004 7.71924 6.47236 7.17122C7.11444 6.98126 7.78895 7.34777 7.97891 7.98985Z" fill="white"/>
</g>
</svg>
