<svg width="40" height="40" viewBox="0 0 40 40" fill="none" xmlns="http://www.w3.org/2000/svg">
<g id="SVG">
<path id="Vector" d="M18 17V35L23 28H32L18 17Z" fill="#F83A3A" stroke="#F83A3A" stroke-linejoin="round"/>
<path id="Vector_2" d="M20 29C24.9706 29 29 24.9706 29 20C29 15.0294 24.9706 11 20 11C15.0294 11 11 15.0294 11 20C11 24.9706 15.0294 29 20 29Z" fill="#F83A3A" fill-opacity="0.12"/>
<path id="Vector_3" opacity="0.4" d="M20 5V7" stroke="#F83A3A" stroke-linecap="round" stroke-linejoin="round"/>
<path id="Vector_4" d="M27.5 7.00781L26.5 8.73981M32.99 12.4978L31.258 13.4978M35 19.9978H33M8.742 26.4978L7.01 27.4978M7 19.9978H5" stroke="#F83A3A" stroke-linecap="round" stroke-linejoin="round"/>
<path id="Vector_5" opacity="0.4" d="M8.74177 13.4978L7.00977 12.4978M13.4998 8.73981L12.4998 7.00781" stroke="#F83A3A" stroke-linecap="round" stroke-linejoin="round"/>
</g>
</svg>
