<svg width="31" height="30" viewBox="0 0 31 30" fill="none" xmlns="http://www.w3.org/2000/svg">
<g id="security-validation">
<path id="Vector" opacity="0.4" d="M10.3335 3.71056C11.7789 2.96177 13.436 2.27319 15.4745 2.27319C17.5129 2.27319 19.1706 2.96178 20.6167 3.71055C21.0536 3.93677 21.4595 4.16054 21.8475 4.3744C22.7968 4.8978 23.6383 5.36172 24.5622 5.65634C25.1043 5.82925 25.5847 5.98245 25.9253 6.11586C26.2459 6.24144 26.6269 6.41355 26.8972 6.71397C27.1402 6.98384 27.265 7.28684 27.3477 7.57665C27.4228 7.83975 27.487 8.19597 27.5485 8.53769C29.0499 16.8613 25.7712 24.7474 17.7569 27.816C16.9691 28.1177 16.389 28.3399 15.4785 28.3399C14.5678 28.3399 13.9877 28.1177 13.1999 27.816C5.1853 24.7476 1.90333 16.8617 3.40421 8.53775C3.46579 8.19607 3.52997 7.83993 3.60505 7.57686C3.68776 7.28706 3.81252 6.98409 4.05534 6.71422C4.32565 6.4138 4.70665 6.24165 5.02724 6.11603C5.36784 5.98256 5.84821 5.8293 6.39051 5.65628C7.31383 5.36167 8.1546 4.89788 9.10325 4.37457C9.49097 4.16068 9.89674 3.93684 10.3335 3.71056Z" fill="white"/>
<path id="Vector_2" fill-rule="evenodd" clip-rule="evenodd" d="M15.478 21.3699C18.826 21.3699 21.5401 18.6558 21.5401 15.3079C21.5401 11.9599 18.826 9.24585 15.478 9.24585C12.1301 9.24585 9.41602 11.9599 9.41602 15.3079C9.41602 18.6558 12.1301 21.3699 15.478 21.3699ZM18.2064 14.3467C18.6798 14.179 18.9277 13.6594 18.76 13.1859C18.5923 12.7126 18.0727 12.4647 17.5993 12.6324C17.0148 12.8394 16.4721 13.2271 16.0128 13.6299C15.5442 14.0409 15.1098 14.5146 14.7442 14.953C14.5669 15.1654 14.4032 15.3726 14.2569 15.5648C14.15 15.4648 14.0428 15.3801 13.9365 15.3093C13.9146 15.2948 13.8929 15.2796 13.8708 15.2641C13.6971 15.1432 13.4985 15.005 13.0532 15.005C12.551 15.005 12.1439 15.4121 12.1439 15.9143C12.1439 16.3686 12.4771 16.7452 12.9124 16.8128C12.9168 16.8154 12.9219 16.8185 12.9277 16.8224C12.9952 16.8675 13.2032 17.0351 13.4524 17.5334C13.5989 17.8265 13.8919 18.0181 14.2191 18.0348C14.5463 18.0515 14.8575 17.8905 15.0333 17.614C15.2307 17.3344 15.8127 16.5111 16.1406 16.1179C16.4703 15.7228 16.8382 15.3251 17.212 14.9973C17.5953 14.6612 17.9351 14.4427 18.2064 14.3467Z" fill="white"/>
</g>
</svg>
