<svg width="41" height="40" viewBox="0 0 41 40" fill="none" xmlns="http://www.w3.org/2000/svg">
<g id="SVG">
<path id="Vector" d="M31.5 8V25V32C31.5 32.7956 31.1839 33.5587 30.6213 34.1213C30.0587 34.6839 29.2956 35 28.5 35H12.5C11.7044 35 10.9413 34.6839 10.3787 34.1213C9.81607 33.5587 9.5 32.7956 9.5 32V8C9.5 7.20435 9.81607 6.44129 10.3787 5.87868C10.9413 5.31607 11.7044 5 12.5 5H28.5C29.2956 5 30.0587 5.31607 30.6213 5.87868C31.1839 6.44129 31.5 7.20435 31.5 8Z" fill="url(#paint0_linear_996_4051)" fill-opacity="0.24"/>
<path id="Vector_2" d="M24.5 5H16.5M28.5 5C29.2957 5 30.0587 5.31607 30.6213 5.87868C31.1839 6.44129 31.5 7.20435 31.5 8V32C31.5 32.7957 31.1839 33.5587 30.6213 34.1213C30.0587 34.6839 29.2956 35 28.5 35H12.5C11.7044 35 10.9413 34.6839 10.3787 34.1213C9.81607 33.5587 9.5 32.7956 9.5 32V8C9.5 7.20435 9.81607 6.44129 10.3787 5.87868C10.9413 5.31607 11.7044 5 12.5 5" stroke="white" stroke-linecap="round" stroke-linejoin="round"/>
<path id="Vector_3" opacity="0.32" d="M13.5 12L15.5 10L17.5 12L19.5 11L20.5 12H27.5" stroke="white" stroke-linecap="round" stroke-linejoin="round"/>
<path id="Vector_4" opacity="0.48" d="M13.5 16H27.5" stroke="white" stroke-linecap="round" stroke-linejoin="round"/>
<path id="Vector_5" d="M13.5 20H27.5" stroke="white" stroke-linecap="round" stroke-linejoin="round"/>
<path id="Vector_6" d="M14.5 28.25C16.75 28.25 16.75 26 16.75 26C16.75 26 16.75 28.25 19 28.25C16.75 28.25 16.75 30.5 16.75 30.5C16.75 30.5 16.75 28.25 14.5 28.25Z" fill="white"/>
<path id="Vector_7" d="M27 26H27.01M16.75 26C16.75 26 16.75 28.25 14.5 28.25C16.75 28.25 16.75 30.5 16.75 30.5C16.75 30.5 16.75 28.25 19 28.25C16.75 28.25 16.75 26 16.75 26Z" stroke="white" stroke-width="1.5" stroke-linecap="round" stroke-linejoin="round"/>
</g>
<defs>
<linearGradient id="paint0_linear_996_4051" x1="20.5" y1="5" x2="20.5" y2="35" gradientUnits="userSpaceOnUse">
<stop stop-color="white" stop-opacity="0"/>
<stop offset="1" stop-color="white"/>
</linearGradient>
</defs>
</svg>
